<svg xmlns="http://www.w3.org/2000/svg" viewBox="0 0 256 193" role="img" aria-label="Gmail">
  <path fill="#4285F4" d="M58.18 192.05V93.52L0 49.89v122.7c0 10.75 8.7 19.46 19.45 19.46h38.73Z"/>
  <path fill="#34A853" d="M197.82 192.05h38.73c10.75 0 19.45-8.7 19.45-19.46V49.89l-58.18 43.63v98.53Z"/>
  <path fill="#EA4335" d="M58.18 93.52 128 145.89l69.82-52.37V10.48L128 62.84 58.18 10.48v83.04Z"/>
  <path fill="#FBBC04" d="M197.82 10.48v83.04L256 49.89V20.2c0-17.1-19.52-26.87-33.16-16.6l-25.02 6.88Z"/>
  <path fill="#C5221F" d="M0 49.89 58.18 93.52V10.48L33.16 3.6C19.52-6.66 0 3.1 0 20.2v29.69Z"/>
</svg>
